<mxfile host="Electron" modified="2024-01-14T13:15:21.305Z" agent="Mozilla/5.0 (X11; Linux x86_64) AppleWebKit/537.36 (KHTML, like Gecko) draw.io/22.1.18 Chrome/120.0.6099.199 Electron/28.1.2 Safari/537.36" etag="00vwXzj9ox0iKit58FIc" version="22.1.18" type="device">
  <diagram name="Page-1" id="wvdjwboCnqvLqHkGDaZv">
    <mxGraphModel dx="1314" dy="843" grid="1" gridSize="10" guides="1" tooltips="1" connect="1" arrows="1" fold="1" page="1" pageScale="1" pageWidth="1100" pageHeight="850" math="0" shadow="0">
      <root>
        <mxCell id="0" />
        <mxCell id="1" parent="0" />
        <mxCell id="mYIlwWjwxYL-IB4AvAaH-3" value="host/docker-engine" style="verticalAlign=top;align=left;spacingTop=8;spacingLeft=2;spacingRight=12;shape=cube;size=10;direction=south;fontStyle=4;html=1;whiteSpace=wrap;" vertex="1" parent="1">
          <mxGeometry x="210" y="150" width="830" height="520" as="geometry" />
        </mxCell>
        <mxCell id="mYIlwWjwxYL-IB4AvAaH-18" style="edgeStyle=orthogonalEdgeStyle;rounded=0;orthogonalLoop=1;jettySize=auto;html=1;" edge="1" parent="1">
          <mxGeometry relative="1" as="geometry">
            <mxPoint x="658" y="400" as="sourcePoint" />
            <mxPoint x="658" y="431" as="targetPoint" />
          </mxGeometry>
        </mxCell>
        <mxCell id="mYIlwWjwxYL-IB4AvAaH-38" value="3306" style="edgeLabel;html=1;align=center;verticalAlign=middle;resizable=0;points=[];" vertex="1" connectable="0" parent="mYIlwWjwxYL-IB4AvAaH-18">
          <mxGeometry x="-0.2258" y="-2" relative="1" as="geometry">
            <mxPoint as="offset" />
          </mxGeometry>
        </mxCell>
        <mxCell id="mYIlwWjwxYL-IB4AvAaH-1" value="app" style="verticalAlign=top;align=left;spacingTop=8;spacingLeft=2;spacingRight=12;shape=cube;size=10;direction=south;fontStyle=4;html=1;whiteSpace=wrap;fillColor=#dae8fc;strokeColor=#6c8ebf;" vertex="1" parent="1">
          <mxGeometry x="510" y="297.5" width="300" height="102.5" as="geometry" />
        </mxCell>
        <mxCell id="mYIlwWjwxYL-IB4AvAaH-2" value="php : &quot;php:8.2.11-fpm&quot;&lt;br&gt;./php/DockerFile" style="shape=module;align=left;spacingLeft=20;align=center;verticalAlign=top;whiteSpace=wrap;html=1;fillColor=#d5e8d4;strokeColor=#82b366;" vertex="1" parent="1">
          <mxGeometry x="544" y="327.5" width="230" height="52.5" as="geometry" />
        </mxCell>
        <mxCell id="mYIlwWjwxYL-IB4AvAaH-32" style="edgeStyle=orthogonalEdgeStyle;rounded=0;orthogonalLoop=1;jettySize=auto;html=1;" edge="1" parent="1" source="mYIlwWjwxYL-IB4AvAaH-4" target="mYIlwWjwxYL-IB4AvAaH-27">
          <mxGeometry relative="1" as="geometry" />
        </mxCell>
        <mxCell id="mYIlwWjwxYL-IB4AvAaH-4" value="/var/www" style="shape=cylinder3;whiteSpace=wrap;html=1;boundedLbl=1;backgroundOutline=1;size=15;fillColor=#fff2cc;strokeColor=#d6b656;" vertex="1" parent="1">
          <mxGeometry x="615" y="219" width="90" height="54" as="geometry" />
        </mxCell>
        <mxCell id="mYIlwWjwxYL-IB4AvAaH-8" value="mysql -&amp;gt; mysql" style="verticalAlign=top;align=left;spacingTop=8;spacingLeft=2;spacingRight=12;shape=cube;size=10;direction=south;fontStyle=4;html=1;whiteSpace=wrap;fillColor=#dae8fc;strokeColor=#6c8ebf;" vertex="1" parent="1">
          <mxGeometry x="505" y="431" width="310" height="80" as="geometry" />
        </mxCell>
        <mxCell id="mYIlwWjwxYL-IB4AvAaH-9" value="nginx -&amp;gt; nginx:apline" style="verticalAlign=top;align=left;spacingTop=8;spacingLeft=2;spacingRight=12;shape=cube;size=10;direction=south;fontStyle=4;html=1;whiteSpace=wrap;fillColor=#dae8fc;strokeColor=#6c8ebf;" vertex="1" parent="1">
          <mxGeometry x="274" y="306.5" width="190" height="93.5" as="geometry" />
        </mxCell>
        <mxCell id="mYIlwWjwxYL-IB4AvAaH-35" style="edgeStyle=orthogonalEdgeStyle;rounded=0;orthogonalLoop=1;jettySize=auto;html=1;exitX=0.5;exitY=1;exitDx=0;exitDy=0;exitPerimeter=0;" edge="1" parent="1" source="mYIlwWjwxYL-IB4AvAaH-10" target="mYIlwWjwxYL-IB4AvAaH-33">
          <mxGeometry relative="1" as="geometry" />
        </mxCell>
        <mxCell id="mYIlwWjwxYL-IB4AvAaH-10" value="/var/lib/mysql" style="shape=cylinder3;whiteSpace=wrap;html=1;boundedLbl=1;backgroundOutline=1;size=15;fillColor=#fff2cc;strokeColor=#d6b656;" vertex="1" parent="1">
          <mxGeometry x="861" y="442" width="89" height="57.25" as="geometry" />
        </mxCell>
        <mxCell id="mYIlwWjwxYL-IB4AvAaH-11" style="edgeStyle=orthogonalEdgeStyle;rounded=0;orthogonalLoop=1;jettySize=auto;html=1;entryX=0;entryY=0.5;entryDx=0;entryDy=0;entryPerimeter=0;" edge="1" parent="1" source="mYIlwWjwxYL-IB4AvAaH-8" target="mYIlwWjwxYL-IB4AvAaH-10">
          <mxGeometry relative="1" as="geometry" />
        </mxCell>
        <mxCell id="mYIlwWjwxYL-IB4AvAaH-13" value="phppyadmin -&amp;gt; phpmyadmin/phpadmin" style="verticalAlign=top;align=left;spacingTop=8;spacingLeft=2;spacingRight=12;shape=cube;size=10;direction=south;fontStyle=4;html=1;whiteSpace=wrap;fillColor=#dae8fc;strokeColor=#6c8ebf;" vertex="1" parent="1">
          <mxGeometry x="498" y="546" width="314" height="70" as="geometry" />
        </mxCell>
        <mxCell id="mYIlwWjwxYL-IB4AvAaH-17" value="3306" style="edgeStyle=orthogonalEdgeStyle;rounded=0;orthogonalLoop=1;jettySize=auto;html=1;entryX=0;entryY=0;entryDx=80;entryDy=160;entryPerimeter=0;" edge="1" parent="1">
          <mxGeometry relative="1" as="geometry">
            <mxPoint x="658" y="549" as="sourcePoint" />
            <mxPoint x="658" y="511" as="targetPoint" />
          </mxGeometry>
        </mxCell>
        <mxCell id="mYIlwWjwxYL-IB4AvAaH-19" style="edgeStyle=orthogonalEdgeStyle;rounded=0;orthogonalLoop=1;jettySize=auto;html=1;entryX=0;entryY=0;entryDx=56.25;entryDy=300;entryPerimeter=0;" edge="1" parent="1" source="mYIlwWjwxYL-IB4AvAaH-9" target="mYIlwWjwxYL-IB4AvAaH-1">
          <mxGeometry relative="1" as="geometry" />
        </mxCell>
        <mxCell id="mYIlwWjwxYL-IB4AvAaH-39" value="9000" style="edgeLabel;html=1;align=center;verticalAlign=middle;resizable=0;points=[];" vertex="1" connectable="0" parent="mYIlwWjwxYL-IB4AvAaH-19">
          <mxGeometry x="-0.2688" y="-2" relative="1" as="geometry">
            <mxPoint as="offset" />
          </mxGeometry>
        </mxCell>
        <mxCell id="mYIlwWjwxYL-IB4AvAaH-20" style="edgeStyle=orthogonalEdgeStyle;rounded=0;orthogonalLoop=1;jettySize=auto;html=1;entryX=0;entryY=0;entryDx=50.5;entryDy=310;entryPerimeter=0;exitX=0;exitY=0;exitDx=93.5;exitDy=100;exitPerimeter=0;" edge="1" parent="1" source="mYIlwWjwxYL-IB4AvAaH-9" target="mYIlwWjwxYL-IB4AvAaH-8">
          <mxGeometry relative="1" as="geometry" />
        </mxCell>
        <mxCell id="mYIlwWjwxYL-IB4AvAaH-45" value="???" style="edgeLabel;html=1;align=center;verticalAlign=middle;resizable=0;points=[];" vertex="1" connectable="0" parent="mYIlwWjwxYL-IB4AvAaH-20">
          <mxGeometry x="0.3258" y="1" relative="1" as="geometry">
            <mxPoint x="1" y="1" as="offset" />
          </mxGeometry>
        </mxCell>
        <mxCell id="mYIlwWjwxYL-IB4AvAaH-22" style="edgeStyle=orthogonalEdgeStyle;rounded=0;orthogonalLoop=1;jettySize=auto;html=1;entryX=0.5;entryY=1;entryDx=0;entryDy=0;entryPerimeter=0;" edge="1" parent="1" source="mYIlwWjwxYL-IB4AvAaH-1" target="mYIlwWjwxYL-IB4AvAaH-4">
          <mxGeometry relative="1" as="geometry" />
        </mxCell>
        <mxCell id="mYIlwWjwxYL-IB4AvAaH-27" value="./src" style="image;aspect=fixed;html=1;points=[];align=center;fontSize=12;image=img/lib/azure2/general/Folder_Blank.svg;" vertex="1" parent="1">
          <mxGeometry x="498" y="231.8" width="35" height="28.4" as="geometry" />
        </mxCell>
        <mxCell id="mYIlwWjwxYL-IB4AvAaH-28" value="/var/www" style="shape=cylinder3;whiteSpace=wrap;html=1;boundedLbl=1;backgroundOutline=1;size=15;fillColor=#fff2cc;strokeColor=#d6b656;" vertex="1" parent="1">
          <mxGeometry x="319" y="219" width="99" height="54" as="geometry" />
        </mxCell>
        <mxCell id="mYIlwWjwxYL-IB4AvAaH-29" style="edgeStyle=orthogonalEdgeStyle;rounded=0;orthogonalLoop=1;jettySize=auto;html=1;entryX=0.5;entryY=1;entryDx=0;entryDy=0;entryPerimeter=0;" edge="1" parent="1" source="mYIlwWjwxYL-IB4AvAaH-9" target="mYIlwWjwxYL-IB4AvAaH-28">
          <mxGeometry relative="1" as="geometry" />
        </mxCell>
        <mxCell id="mYIlwWjwxYL-IB4AvAaH-30" style="edgeStyle=orthogonalEdgeStyle;rounded=0;orthogonalLoop=1;jettySize=auto;html=1;entryX=0.029;entryY=0.493;entryDx=0;entryDy=0;entryPerimeter=0;" edge="1" parent="1" source="mYIlwWjwxYL-IB4AvAaH-28" target="mYIlwWjwxYL-IB4AvAaH-27">
          <mxGeometry relative="1" as="geometry" />
        </mxCell>
        <mxCell id="mYIlwWjwxYL-IB4AvAaH-33" value="./mysql/data" style="image;aspect=fixed;html=1;points=[];align=center;fontSize=12;image=img/lib/azure2/general/Folder_Blank.svg;" vertex="1" parent="1">
          <mxGeometry x="889" y="537" width="33" height="26.78" as="geometry" />
        </mxCell>
        <mxCell id="mYIlwWjwxYL-IB4AvAaH-42" value="" style="endArrow=classic;html=1;rounded=0;exitX=0;exitY=0;exitDx=51.75;exitDy=190;exitPerimeter=0;" edge="1" parent="1" source="mYIlwWjwxYL-IB4AvAaH-9">
          <mxGeometry width="50" height="50" relative="1" as="geometry">
            <mxPoint x="620" y="470" as="sourcePoint" />
            <mxPoint x="180" y="358" as="targetPoint" />
          </mxGeometry>
        </mxCell>
        <mxCell id="mYIlwWjwxYL-IB4AvAaH-43" value="8080:80" style="edgeLabel;html=1;align=center;verticalAlign=middle;resizable=0;points=[];" vertex="1" connectable="0" parent="mYIlwWjwxYL-IB4AvAaH-42">
          <mxGeometry x="-0.0962" y="1" relative="1" as="geometry">
            <mxPoint as="offset" />
          </mxGeometry>
        </mxCell>
      </root>
    </mxGraphModel>
  </diagram>
</mxfile>
